<svg width="34" height="24" viewBox="0 0 34 24" fill="none" xmlns="http://www.w3.org/2000/svg">
<path id="Vector" d="M33.7519 9.35376V23.1298H27.0224V9.93913C27.0224 7.69668 25.944 6.25967 23.7918 6.25967C21.5472 6.25967 20.2928 7.83092 20.2928 10.4783V23.1298H13.5611V9.93913C13.5611 7.69668 12.4849 6.25967 10.3305 6.25967C8.08807 6.25967 6.83151 7.83092 6.83151 10.4783V23.1298H0.101929V0.696452H6.84249V2.75185C7.53994 1.83662 8.45564 1.11077 9.50589 0.640619C10.5561 0.170467 11.7075 -0.0289944 12.8547 0.0604644C14.0066 0.00413821 15.1535 0.247171 16.1836 0.765886C17.2137 1.2846 18.0919 2.06131 18.7325 3.02033C19.4784 2.01692 20.4666 1.21907 21.6046 0.70143C22.7426 0.183787 23.9934 -0.036742 25.2398 0.0604644C30.3893 0.069267 33.7519 3.74653 33.7519 9.35376Z" fill="white"/>
</svg>
