<svg width="25" height="33" viewBox="0 0 25 33" fill="none" xmlns="http://www.w3.org/2000/svg">
<path id="Vector" d="M24.8106 11.9138C24.8888 13.3966 24.6731 14.8802 24.1758 16.2794C23.6786 17.6785 22.9097 18.9655 21.9133 20.0664C20.9169 21.1673 19.7127 22.0604 18.3699 22.6942C17.0271 23.3281 15.5723 23.6902 14.089 23.7598C12.8414 23.8277 11.5943 23.6173 10.438 23.1438C9.28172 22.6704 8.24519 21.9457 7.4035 21.0222V32.1046H0.67395V0.697124H7.4035V2.80533C8.2454 1.88228 9.28201 1.15799 10.4383 0.684901C11.5946 0.211808 12.8416 0.00174647 14.089 0.0699335C15.5722 0.139238 17.027 0.501112 18.3697 1.13473C19.7125 1.76834 20.9167 2.6612 21.9132 3.76193C22.9096 4.86266 23.6785 6.14955 24.1758 7.54856C24.673 8.94757 24.8888 10.4311 24.8106 11.9138ZM18.081 11.9138C18.0546 10.8635 17.719 9.84426 17.1162 8.98374C16.5134 8.12321 15.6702 7.4596 14.6921 7.07593C13.714 6.69225 12.6445 6.60557 11.6174 6.82674C10.5903 7.04791 9.65125 7.56711 8.91777 8.31934C8.18428 9.07158 7.68895 10.0234 7.49376 11.0558C7.29858 12.0881 7.41221 13.1551 7.82044 14.1232C8.22866 15.0913 8.91335 15.9175 9.78881 16.4984C10.6643 17.0793 11.6916 17.3891 12.7423 17.389C13.4637 17.4215 14.1839 17.301 14.8555 17.0355C15.5271 16.77 16.135 16.3654 16.6392 15.8483C17.1433 15.3312 17.5325 14.7134 17.781 14.0353C18.0294 13.3572 18.1317 12.6342 18.081 11.9138Z" fill="white"/>
</svg>
