<svg width="20" height="24" viewBox="0 0 20 24" fill="none" xmlns="http://www.w3.org/2000/svg">
<path id="Vector" d="M19.5829 16.3966C19.5829 21.5571 15.0958 23.7555 10.25 23.7555C8.29238 23.9327 6.32667 23.5183 4.60711 22.5662C2.88755 21.614 1.49325 20.1678 0.604553 18.4146L6.43625 15.096C6.67333 15.9064 7.18144 16.6108 7.87562 17.0915C8.5698 17.5722 9.40797 17.8 10.25 17.7368C11.8652 17.7368 12.6707 17.2416 12.6707 16.346C12.6707 13.8768 1.63446 15.1796 1.63446 7.41577C1.63446 2.52595 5.76066 0.0590321 10.437 0.0590321C12.191 0.00397437 13.9277 0.420189 15.4662 1.26433C17.0047 2.10847 18.2887 3.34965 19.1846 4.85863L13.4431 7.95492C13.1919 7.36604 12.7729 6.86417 12.2383 6.51194C11.7037 6.15972 11.0772 5.97274 10.437 5.97435C9.27068 5.97435 8.55326 6.41448 8.55326 7.23091C8.54666 9.80566 19.5829 8.10017 19.5829 16.3966Z" fill="white"/>
</svg>
