<svg width="90" height="43" viewBox="0 0 90 43" fill="none" xmlns="http://www.w3.org/2000/svg">
<path id="Vector" d="M0.454163 0.378174H7.18591V33.1303H0.454163V0.378174ZM10.9974 21.9136C10.99 19.5617 11.6807 17.2605 12.9819 15.3014C14.2832 13.3422 16.1365 11.8133 18.3073 10.9081C20.478 10.0029 22.8686 9.76227 25.1762 10.2166C27.4838 10.6709 29.6048 11.7997 31.2704 13.4601C32.9361 15.1205 34.0716 17.2379 34.5332 19.5441C34.9947 21.8503 34.7616 24.2415 33.8633 26.4151C32.965 28.5887 31.4419 30.4469 29.4868 31.7543C27.5318 33.0618 25.2328 33.7597 22.8809 33.7597C21.3188 33.7764 19.7691 33.4817 18.3223 32.8927C16.8754 32.3038 15.5604 31.4324 14.454 30.3296C13.3477 29.2267 12.4722 27.9145 11.8787 26.4695C11.2852 25.0245 10.9856 23.4757 10.9974 21.9136ZM28.048 21.9136C28.0216 20.8991 27.6966 19.9149 27.1138 19.0841C26.5309 18.2533 25.716 17.6128 24.7711 17.2427C23.8261 16.8726 22.793 16.7894 21.8009 17.0034C20.8089 17.2175 19.902 17.7192 19.1937 18.446C18.4853 19.1728 18.007 20.0923 17.8185 21.0895C17.63 22.0867 17.7398 23.1173 18.134 24.0525C18.5282 24.9876 19.1894 25.7858 20.0349 26.3471C20.8804 26.9085 21.8726 27.208 22.8875 27.2084C23.5824 27.2282 24.2739 27.1038 24.9184 26.843C25.5629 26.5823 26.1463 26.1909 26.632 25.6934C27.1177 25.196 27.495 24.6033 27.7402 23.9527C27.9855 23.3022 28.0932 22.6079 28.0568 21.9136H28.048ZM61.6055 10.6904V32.0036C61.6055 39.5407 55.7276 42.7251 49.7617 42.7251C47.6617 42.8836 45.5585 42.4609 43.6829 41.5032C41.8072 40.5456 40.2314 39.09 39.1282 37.2961L44.8697 33.9753C45.3331 34.9116 46.0713 35.6841 46.9857 36.1894C47.9 36.6948 48.9468 36.9089 49.9861 36.8032C50.6495 36.8937 51.3247 36.8342 51.962 36.629C52.5992 36.4237 53.1823 36.078 53.6681 35.6174C54.1539 35.1567 54.5301 34.5928 54.7688 33.9674C55.0076 33.3419 55.1029 32.6708 55.0476 32.0036V29.9394C54.2593 30.9034 53.2561 31.6693 52.1184 32.1756C50.9807 32.682 49.7402 32.9147 48.4963 32.8552C45.5352 32.7632 42.7262 31.5222 40.6641 29.3951C38.6021 27.268 37.449 24.4217 37.449 21.4592C37.449 18.4967 38.6021 15.6504 40.6641 13.5233C42.7262 11.3962 45.5352 10.1552 48.4963 10.0632C49.7402 10.0037 50.9807 10.2364 52.1184 10.7428C53.2561 11.2491 54.2593 12.015 55.0476 12.979V10.6904H61.6055ZM55.0564 21.4581C55.1008 20.3746 54.82 19.3026 54.2502 18.3799C53.6804 17.4572 52.8477 16.726 51.8591 16.2804C50.8705 15.8348 49.7711 15.6951 48.7024 15.8792C47.6338 16.0633 46.6446 16.5629 45.8621 17.3137C45.0796 18.0645 44.5396 19.0322 44.3115 20.0923C44.0833 21.1525 44.1775 22.2566 44.5819 23.2628C44.9863 24.2691 45.6824 25.1313 46.5808 25.7387C47.4791 26.3461 48.5386 26.6709 49.6231 26.6714C50.3301 26.7211 51.0398 26.6223 51.7063 26.3813C52.3729 26.1403 52.9817 25.7624 53.4934 25.272C54.0052 24.7816 54.4086 24.1894 54.6778 23.5337C54.947 22.878 55.076 22.1732 55.0564 21.4647V21.4581ZM65.417 21.8982C65.4096 19.5463 66.1003 17.2451 67.4016 15.286C68.7028 13.3268 70.5562 11.7979 72.7269 10.8927C74.8977 9.98754 77.2882 9.74686 79.5958 10.2012C81.9034 10.6554 84.0244 11.7843 85.69 13.4447C87.3557 15.1051 88.4912 17.2225 88.9528 19.5287C89.4144 21.8349 89.1812 24.2261 88.2829 26.3997C87.3846 28.5733 85.8615 30.4315 83.9064 31.7389C81.9514 33.0463 79.6524 33.7443 77.3005 33.7443C75.7397 33.7609 74.1913 33.4667 72.7455 32.8787C71.2996 32.2908 69.9853 31.4208 68.8792 30.3196C67.7731 29.2184 66.8973 27.908 66.3028 26.4648C65.7084 25.0215 65.4073 23.4744 65.417 21.9136V21.8982ZM82.4676 21.8982C82.4416 20.8831 82.1168 19.8981 81.5339 19.0666C80.951 18.2351 80.1358 17.594 79.1903 17.2235C78.2448 16.853 77.2111 16.7695 76.2184 16.9836C75.2257 17.1976 74.3182 17.6996 73.6094 18.4268C72.9007 19.1541 72.4221 20.0742 72.2336 21.072C72.0451 22.0698 72.1551 23.1011 72.5497 24.0368C72.9444 24.9724 73.6062 25.7709 74.4524 26.3323C75.2986 26.8937 76.2916 27.1931 77.3071 27.193C77.9999 27.2114 78.6891 27.0865 79.3314 26.8261C79.9738 26.5658 80.5554 26.1756 81.0399 25.6799C81.5244 25.1843 81.9013 24.5939 82.1469 23.9458C82.3926 23.2977 82.5018 22.6059 82.4676 21.9136V21.8982Z" fill="white"/>
</svg>
