<svg width="57" height="59" viewBox="0 0 57 59" fill="none" xmlns="http://www.w3.org/2000/svg">
<path id="Vector" d="M24.2964 55.5532L1.03781 10.0682C0.506149 9.02767 0.27219 7.86049 0.361738 6.69541C0.451286 5.53032 0.86086 4.4126 1.54529 3.4655C2.22972 2.5184 3.16242 1.77873 4.24053 1.32804C5.31864 0.877352 6.50028 0.733167 7.65513 0.911382L50.759 7.56391C51.7514 7.71709 52.6933 8.10363 53.5072 8.69176C54.3211 9.27988 54.9837 10.0528 55.4407 10.9469C55.8976 11.8411 56.1358 12.8309 56.1357 13.8351C56.1355 14.8392 55.897 15.829 55.4398 16.723L35.5834 55.5554C35.0503 56.593 34.2413 57.4635 33.2456 58.0712C32.2498 58.6789 31.1058 59.0003 29.9392 59.0001C28.7727 58.9999 27.6288 58.678 26.6333 58.0699C25.6377 57.4618 24.8291 56.591 24.2964 55.5532Z" fill="#1DACE3"/>
</svg>
